<svg width="100" height="100" viewBox="0 0 100 100" xmlns="http://www.w3.org/2000/svg" xmlns:xlink="http://www.w3.org/1999/xlink"><use xlink:href="#path0_fill" fill="#724DC8"/><use xlink:href="#path1_fill" transform="translate(20 32)" fill="#FFF"/><defs><path id="path0_fill" d="M0 0h100v100H0V0z"/><path id="path1_fill" d="M20.906 42.344h-7.468V59H4.062V13.5H20.97c5.375 0 9.52 1.198 12.437 3.594s4.375 5.781 4.375 10.156c0 3.104-.677 5.698-2.031 7.781-1.333 2.063-3.365 3.709-6.094 4.938L39.5 58.562V59H29.437l-8.53-16.656zm-7.468-7.594H21c2.354 0 4.177-.594 5.469-1.781 1.291-1.209 1.937-2.865 1.937-4.969 0-2.146-.614-3.833-1.843-5.063-1.209-1.229-3.073-1.843-5.594-1.843h-7.532V34.75zm58.874 4.531h-18V51.47h21.126V59h-30.5V13.5h30.437v7.594H54.312v10.843h18v7.344z"/></defs></svg>