<svg width="108" height="40" viewBox="0 0 108 40" xmlns="http://www.w3.org/2000/svg" xmlns:xlink="http://www.w3.org/1999/xlink"><use xlink:href="#path0_fill" fill="#724DC8"/><use xlink:href="#path1_fill" transform="translate(8.059 12.8)" fill="#FFF"/><use xlink:href="#path2_fill" transform="translate(39.084 12.8)"/><defs><path id="path0_fill" d="M0 0h40.293v40H0V0z"/><path id="path1_fill" d="M8.393 17.313H5.395V24H1.63V5.733h6.787c2.158 0 3.822.481 4.993 1.443 1.171.962 1.757 2.321 1.757 4.078 0 1.246-.272 2.287-.816 3.123-.535.829-1.35 1.49-2.446 1.983l3.952 7.464V24h-4.04l-3.425-6.687zm-2.998-3.048H8.43c.945 0 1.677-.239 2.195-.716.519-.485.778-1.15.778-1.994 0-.862-.247-1.54-.74-2.033-.485-.493-1.234-.74-2.246-.74H5.395v5.482zm23.636 1.819h-7.227v4.893h8.481V24H18.041V5.733h12.22v3.05h-8.457v4.352h7.227v2.949z"/><path id="path2_fill" d="M12.37 15.469H3.852V24H2.308V5.733h11.317v1.318H3.852v7.1h8.518v1.318zm17.89.389c0 1.681-.293 3.157-.878 4.428-.577 1.272-1.405 2.25-2.484 2.936-1.079.686-2.325 1.029-3.739 1.029-2.132 0-3.855-.761-5.168-2.283-1.314-1.531-1.97-3.593-1.97-6.185V13.9c0-1.665.293-3.137.878-4.416.594-1.288 1.43-2.275 2.51-2.961 1.078-.694 2.32-1.041 3.725-1.041 1.405 0 2.643.338 3.714 1.016 1.079.677 1.91 1.635 2.496 2.873.586 1.238.891 2.672.916 4.303v2.183zm-1.543-1.982c0-2.2-.497-3.923-1.493-5.17-.995-1.245-2.358-1.869-4.09-1.869-1.698 0-3.053.628-4.064 1.882-1.004 1.247-1.506 2.99-1.506 5.232v1.907c0 2.166.502 3.885 1.506 5.156 1.003 1.263 2.366 1.895 4.09 1.895 1.747 0 3.11-.624 4.09-1.87.978-1.254 1.467-2.998 1.467-5.231v-1.932zm12.257 2.521h-5.307V24h-1.555V5.733h5.934c1.949 0 3.47.473 4.566 1.418 1.096.945 1.644 2.267 1.644 3.965 0 1.17-.343 2.203-1.029 3.098-.686.895-1.606 1.514-2.76 1.857l4.567 7.766V24H45.39l-4.416-7.603zm-5.307-1.317h4.73c1.297 0 2.338-.368 3.124-1.104.786-.736 1.18-1.69 1.18-2.86 0-1.288-.41-2.288-1.23-2.999-.82-.71-1.97-1.066-3.45-1.066h-4.354v8.029zm16.837-9.347l6.737 16.122 6.762-16.122h2.057V24h-1.543v-7.954l.126-8.155L59.843 24h-1.192L51.876 7.954l.126 8.042V24h-1.543V5.733h2.045z"/></defs></svg>